<mxfile host="app.diagrams.net" agent="Mozilla/5.0 (Windows NT 10.0; Win64; x64) AppleWebKit/537.36 (KHTML, like Gecko) Chrome/132.0.0.0 Safari/537.36 Edg/132.0.0.0" version="25.0.3">
  <diagram name="Page-1" id="Z2U6p0LVodjQmmG3kT3D">
    <mxGraphModel dx="3221" dy="2412" grid="1" gridSize="10" guides="1" tooltips="1" connect="1" arrows="1" fold="1" page="1" pageScale="1" pageWidth="827" pageHeight="1169" math="0" shadow="0">
      <root>
        <mxCell id="0" />
        <mxCell id="1" parent="0" />
        <mxCell id="RneDQQNkBCsze__7GoP--106" style="edgeStyle=orthogonalEdgeStyle;rounded=0;orthogonalLoop=1;jettySize=auto;html=1;entryX=0;entryY=0.5;entryDx=0;entryDy=0;endArrow=ERmany;endFill=0;" edge="1" parent="1" source="RneDQQNkBCsze__7GoP--2" target="RneDQQNkBCsze__7GoP--27">
          <mxGeometry relative="1" as="geometry">
            <Array as="points">
              <mxPoint x="554" y="160" />
              <mxPoint x="554" y="115" />
            </Array>
          </mxGeometry>
        </mxCell>
        <mxCell id="RneDQQNkBCsze__7GoP--108" style="edgeStyle=orthogonalEdgeStyle;rounded=0;orthogonalLoop=1;jettySize=auto;html=1;entryX=0;entryY=0.25;entryDx=0;entryDy=0;endArrow=ERmany;endFill=0;" edge="1" parent="1" source="RneDQQNkBCsze__7GoP--2" target="RneDQQNkBCsze__7GoP--39">
          <mxGeometry relative="1" as="geometry">
            <Array as="points">
              <mxPoint x="470" y="30" />
              <mxPoint x="540" y="30" />
              <mxPoint x="540" y="-227" />
            </Array>
          </mxGeometry>
        </mxCell>
        <mxCell id="RneDQQNkBCsze__7GoP--119" style="edgeStyle=orthogonalEdgeStyle;rounded=0;orthogonalLoop=1;jettySize=auto;html=1;entryX=1;entryY=0.5;entryDx=0;entryDy=0;endArrow=ERmany;endFill=0;" edge="1" parent="1" source="RneDQQNkBCsze__7GoP--2" target="RneDQQNkBCsze__7GoP--35">
          <mxGeometry relative="1" as="geometry" />
        </mxCell>
        <mxCell id="RneDQQNkBCsze__7GoP--2" value="User" style="swimlane;childLayout=stackLayout;horizontal=1;startSize=50;horizontalStack=0;rounded=1;fontSize=14;fontStyle=0;strokeWidth=2;resizeParent=0;resizeLast=1;shadow=0;dashed=0;align=center;arcSize=4;whiteSpace=wrap;html=1;" vertex="1" parent="1">
          <mxGeometry x="340" y="110" width="160" height="165" as="geometry" />
        </mxCell>
        <mxCell id="RneDQQNkBCsze__7GoP--3" value="+userID: int (PK)&lt;br&gt;+name: string&lt;br&gt;+email: string&lt;div&gt;+password: string&lt;/div&gt;&lt;div&gt;+role: enum(ADMIN,USER)&lt;/div&gt;&lt;div&gt;+created_at: timestamp&lt;/div&gt;&lt;div&gt;+updated_at: timestamp&lt;br&gt;&lt;div&gt;&lt;br&gt;&lt;/div&gt;&lt;div&gt;&lt;div&gt;&lt;br&gt;&lt;/div&gt;&lt;/div&gt;&lt;/div&gt;" style="align=left;strokeColor=none;fillColor=none;spacingLeft=4;fontSize=12;verticalAlign=top;resizable=0;rotatable=0;part=1;html=1;" vertex="1" parent="RneDQQNkBCsze__7GoP--2">
          <mxGeometry y="50" width="160" height="70" as="geometry" />
        </mxCell>
        <mxCell id="RneDQQNkBCsze__7GoP--4" value="&lt;div&gt;&lt;div&gt;&lt;br&gt;&lt;/div&gt;&lt;/div&gt;" style="align=left;strokeColor=none;fillColor=none;spacingLeft=4;fontSize=12;verticalAlign=top;resizable=0;rotatable=0;part=1;html=1;" vertex="1" parent="RneDQQNkBCsze__7GoP--2">
          <mxGeometry y="120" width="160" height="45" as="geometry" />
        </mxCell>
        <mxCell id="RneDQQNkBCsze__7GoP--116" style="edgeStyle=orthogonalEdgeStyle;rounded=0;orthogonalLoop=1;jettySize=auto;html=1;entryX=0.25;entryY=0;entryDx=0;entryDy=0;endArrow=ERoneToMany;endFill=0;" edge="1" parent="1" source="RneDQQNkBCsze__7GoP--5" target="RneDQQNkBCsze__7GoP--39">
          <mxGeometry relative="1" as="geometry">
            <Array as="points">
              <mxPoint x="130" y="-300" />
              <mxPoint x="695" y="-300" />
            </Array>
          </mxGeometry>
        </mxCell>
        <mxCell id="RneDQQNkBCsze__7GoP--5" value="Project" style="swimlane;childLayout=stackLayout;horizontal=1;startSize=50;horizontalStack=0;rounded=1;fontSize=14;fontStyle=0;strokeWidth=2;resizeParent=0;resizeLast=1;shadow=0;dashed=0;align=center;arcSize=4;whiteSpace=wrap;html=1;" vertex="1" parent="1">
          <mxGeometry x="-20" y="10" width="220" height="210" as="geometry" />
        </mxCell>
        <mxCell id="RneDQQNkBCsze__7GoP--6" value="+projectID: int (PK)&lt;br&gt;+title: string&lt;br&gt;+description: string&lt;div&gt;+visibility: enum(PUBLIC,PRIVATE)&lt;/div&gt;&lt;div&gt;+status: enum(ACTIVE, COMPLETED)&lt;/div&gt;&lt;div&gt;+filePath: string&lt;/div&gt;&lt;div&gt;+leaderID: int (FK to User&lt;span style=&quot;background-color: initial;&quot;&gt;)&lt;/span&gt;&lt;/div&gt;&lt;div&gt;&lt;span style=&quot;background-color: initial;&quot;&gt;+createdBy: int (FK to User)&lt;/span&gt;&lt;/div&gt;&lt;div&gt;+created_at: timestamp&lt;/div&gt;&lt;div&gt;+updated_at: timestamp&lt;br&gt;&lt;div&gt;&lt;br&gt;&lt;/div&gt;&lt;div&gt;&lt;div&gt;&lt;br&gt;&lt;/div&gt;&lt;/div&gt;&lt;/div&gt;" style="align=left;strokeColor=none;fillColor=none;spacingLeft=4;fontSize=12;verticalAlign=top;resizable=0;rotatable=0;part=1;html=1;" vertex="1" parent="RneDQQNkBCsze__7GoP--5">
          <mxGeometry y="50" width="220" height="70" as="geometry" />
        </mxCell>
        <mxCell id="RneDQQNkBCsze__7GoP--7" value="&lt;div&gt;&lt;div&gt;&lt;br&gt;&lt;/div&gt;&lt;/div&gt;&lt;div&gt;&lt;br&gt;&lt;/div&gt;" style="align=left;strokeColor=none;fillColor=none;spacingLeft=4;fontSize=12;verticalAlign=top;resizable=0;rotatable=0;part=1;html=1;" vertex="1" parent="RneDQQNkBCsze__7GoP--5">
          <mxGeometry y="120" width="220" height="90" as="geometry" />
        </mxCell>
        <mxCell id="RneDQQNkBCsze__7GoP--8" value="RequiredRoles" style="swimlane;childLayout=stackLayout;horizontal=1;startSize=50;horizontalStack=0;rounded=1;fontSize=14;fontStyle=0;strokeWidth=2;resizeParent=0;resizeLast=1;shadow=0;dashed=0;align=center;arcSize=4;whiteSpace=wrap;html=1;" vertex="1" parent="1">
          <mxGeometry x="-120" y="-250" width="160" height="140" as="geometry" />
        </mxCell>
        <mxCell id="RneDQQNkBCsze__7GoP--9" value="+requiredRolesID: int (PK)&lt;div&gt;+projectID: int(FK to Project)&lt;br&gt;&lt;div&gt;+role: enum(e.g Engineer,&lt;/div&gt;&lt;div&gt;&amp;nbsp;Mathematician,Scientist)&lt;/div&gt;&lt;div&gt;+quantity: int&lt;/div&gt;&lt;div&gt;&lt;br&gt;&lt;/div&gt;&lt;div&gt;&lt;br&gt;&lt;div&gt;&lt;br&gt;&lt;/div&gt;&lt;div&gt;&lt;div&gt;&lt;br&gt;&lt;/div&gt;&lt;/div&gt;&lt;/div&gt;&lt;/div&gt;" style="align=left;strokeColor=none;fillColor=none;spacingLeft=4;fontSize=12;verticalAlign=top;resizable=0;rotatable=0;part=1;html=1;" vertex="1" parent="RneDQQNkBCsze__7GoP--8">
          <mxGeometry y="50" width="160" height="70" as="geometry" />
        </mxCell>
        <mxCell id="RneDQQNkBCsze__7GoP--10" value="&lt;div&gt;&lt;div&gt;&lt;br&gt;&lt;/div&gt;&lt;/div&gt;" style="align=left;strokeColor=none;fillColor=none;spacingLeft=4;fontSize=12;verticalAlign=top;resizable=0;rotatable=0;part=1;html=1;" vertex="1" parent="RneDQQNkBCsze__7GoP--8">
          <mxGeometry y="120" width="160" height="20" as="geometry" />
        </mxCell>
        <mxCell id="RneDQQNkBCsze__7GoP--11" value="Paper" style="swimlane;childLayout=stackLayout;horizontal=1;startSize=50;horizontalStack=0;rounded=1;fontSize=14;fontStyle=0;strokeWidth=2;resizeParent=0;resizeLast=1;shadow=0;dashed=0;align=center;arcSize=4;whiteSpace=wrap;html=1;" vertex="1" parent="1">
          <mxGeometry x="400" y="650" width="220" height="200" as="geometry" />
        </mxCell>
        <mxCell id="RneDQQNkBCsze__7GoP--12" value="+paperID: int (PK)&lt;br&gt;+title: string&lt;br&gt;+description: string&lt;div&gt;+visibility: enum(PUBLIC,PRIVATE)&lt;/div&gt;&lt;div&gt;+filePath: string&lt;/div&gt;&lt;div&gt;+projectID: int (FK to Project&lt;span style=&quot;background-color: initial;&quot;&gt;)&lt;/span&gt;&lt;/div&gt;&lt;div&gt;&lt;span style=&quot;background-color: initial;&quot;&gt;+createdBy: int (FK to User)&lt;/span&gt;&lt;/div&gt;&lt;div&gt;+created_at: timestamp&lt;/div&gt;&lt;div&gt;+updated_at: timestamp&lt;br&gt;&lt;div&gt;&lt;br&gt;&lt;/div&gt;&lt;div&gt;&lt;div&gt;&lt;br&gt;&lt;/div&gt;&lt;/div&gt;&lt;/div&gt;" style="align=left;strokeColor=none;fillColor=none;spacingLeft=4;fontSize=12;verticalAlign=top;resizable=0;rotatable=0;part=1;html=1;" vertex="1" parent="RneDQQNkBCsze__7GoP--11">
          <mxGeometry y="50" width="220" height="70" as="geometry" />
        </mxCell>
        <mxCell id="RneDQQNkBCsze__7GoP--13" value="&lt;div&gt;&lt;div&gt;&lt;br&gt;&lt;/div&gt;&lt;/div&gt;" style="align=left;strokeColor=none;fillColor=none;spacingLeft=4;fontSize=12;verticalAlign=top;resizable=0;rotatable=0;part=1;html=1;" vertex="1" parent="RneDQQNkBCsze__7GoP--11">
          <mxGeometry y="120" width="220" height="80" as="geometry" />
        </mxCell>
        <mxCell id="RneDQQNkBCsze__7GoP--14" value="UserProject" style="swimlane;childLayout=stackLayout;horizontal=1;startSize=50;horizontalStack=0;rounded=1;fontSize=14;fontStyle=0;strokeWidth=2;resizeParent=0;resizeLast=1;shadow=0;dashed=0;align=center;arcSize=4;whiteSpace=wrap;html=1;" vertex="1" parent="1">
          <mxGeometry x="70" y="275" width="190" height="160" as="geometry" />
        </mxCell>
        <mxCell id="RneDQQNkBCsze__7GoP--15" value="+userProjectID: int (PK)&lt;div&gt;+userID: int(FK to User)&lt;/div&gt;&lt;div&gt;+projectID: int(FK to Project)&lt;br&gt;&lt;div&gt;+role: enum(COLLABORATOR,&lt;/div&gt;&lt;div&gt;REVIEWER)&amp;nbsp;&lt;/div&gt;&lt;div&gt;+joined_at: timestamp&lt;/div&gt;&lt;div&gt;&lt;br&gt;&lt;/div&gt;&lt;div&gt;&lt;br&gt;&lt;div&gt;&lt;br&gt;&lt;/div&gt;&lt;div&gt;&lt;div&gt;&lt;br&gt;&lt;/div&gt;&lt;/div&gt;&lt;/div&gt;&lt;/div&gt;" style="align=left;strokeColor=none;fillColor=none;spacingLeft=4;fontSize=12;verticalAlign=top;resizable=0;rotatable=0;part=1;html=1;" vertex="1" parent="RneDQQNkBCsze__7GoP--14">
          <mxGeometry y="50" width="190" height="70" as="geometry" />
        </mxCell>
        <mxCell id="RneDQQNkBCsze__7GoP--16" value="&lt;div&gt;&lt;div&gt;&lt;br&gt;&lt;/div&gt;&lt;/div&gt;" style="align=left;strokeColor=none;fillColor=none;spacingLeft=4;fontSize=12;verticalAlign=top;resizable=0;rotatable=0;part=1;html=1;" vertex="1" parent="RneDQQNkBCsze__7GoP--14">
          <mxGeometry y="120" width="190" height="40" as="geometry" />
        </mxCell>
        <mxCell id="RneDQQNkBCsze__7GoP--17" value="UserPaper" style="swimlane;childLayout=stackLayout;horizontal=1;startSize=50;horizontalStack=0;rounded=1;fontSize=14;fontStyle=0;strokeWidth=2;resizeParent=0;resizeLast=1;shadow=0;dashed=0;align=center;arcSize=4;whiteSpace=wrap;html=1;" vertex="1" parent="1">
          <mxGeometry x="660" y="200" width="200" height="140" as="geometry" />
        </mxCell>
        <mxCell id="RneDQQNkBCsze__7GoP--18" value="+userProjectID: int (PK)&lt;div&gt;+userID: int(FK to User)&lt;/div&gt;&lt;div&gt;+paperID: int(FK to Paper)&lt;br&gt;&lt;div&gt;+role: enum(AUTHOR,&lt;span style=&quot;background-color: initial;&quot;&gt;REVIEWER)&amp;nbsp;&lt;/span&gt;&lt;/div&gt;&lt;div&gt;+joined_at: timestamp&lt;/div&gt;&lt;div&gt;&lt;br&gt;&lt;/div&gt;&lt;div&gt;&lt;br&gt;&lt;div&gt;&lt;br&gt;&lt;/div&gt;&lt;div&gt;&lt;div&gt;&lt;br&gt;&lt;/div&gt;&lt;/div&gt;&lt;/div&gt;&lt;/div&gt;" style="align=left;strokeColor=none;fillColor=none;spacingLeft=4;fontSize=12;verticalAlign=top;resizable=0;rotatable=0;part=1;html=1;" vertex="1" parent="RneDQQNkBCsze__7GoP--17">
          <mxGeometry y="50" width="200" height="70" as="geometry" />
        </mxCell>
        <mxCell id="RneDQQNkBCsze__7GoP--19" value="&lt;div&gt;&lt;div&gt;&lt;br&gt;&lt;/div&gt;&lt;/div&gt;" style="align=left;strokeColor=none;fillColor=none;spacingLeft=4;fontSize=12;verticalAlign=top;resizable=0;rotatable=0;part=1;html=1;" vertex="1" parent="RneDQQNkBCsze__7GoP--17">
          <mxGeometry y="120" width="200" height="20" as="geometry" />
        </mxCell>
        <mxCell id="RneDQQNkBCsze__7GoP--20" value="Review" style="swimlane;childLayout=stackLayout;horizontal=1;startSize=50;horizontalStack=0;rounded=1;fontSize=14;fontStyle=0;strokeWidth=2;resizeParent=0;resizeLast=1;shadow=0;dashed=0;align=center;arcSize=4;whiteSpace=wrap;html=1;" vertex="1" parent="1">
          <mxGeometry x="60" y="540" width="220" height="200" as="geometry" />
        </mxCell>
        <mxCell id="RneDQQNkBCsze__7GoP--21" value="+reviewID: int (PK)&lt;br&gt;+userID: int (FK to User)&lt;br&gt;+projectID: int(FK to Project, nullable)&lt;div&gt;+paperID: int(FK to Paper, nullable)&lt;/div&gt;&lt;div&gt;+rating: int&lt;/div&gt;&lt;div&gt;+comment: string&lt;/div&gt;&lt;div&gt;+created_at: timestamp&lt;/div&gt;&lt;div&gt;+updated_at: timestamp&lt;br&gt;&lt;div&gt;&lt;br&gt;&lt;/div&gt;&lt;div&gt;&lt;div&gt;&lt;br&gt;&lt;/div&gt;&lt;/div&gt;&lt;/div&gt;" style="align=left;strokeColor=none;fillColor=none;spacingLeft=4;fontSize=12;verticalAlign=top;resizable=0;rotatable=0;part=1;html=1;" vertex="1" parent="RneDQQNkBCsze__7GoP--20">
          <mxGeometry y="50" width="220" height="70" as="geometry" />
        </mxCell>
        <mxCell id="RneDQQNkBCsze__7GoP--22" value="&lt;div&gt;&lt;div&gt;&lt;br&gt;&lt;/div&gt;&lt;/div&gt;" style="align=left;strokeColor=none;fillColor=none;spacingLeft=4;fontSize=12;verticalAlign=top;resizable=0;rotatable=0;part=1;html=1;" vertex="1" parent="RneDQQNkBCsze__7GoP--20">
          <mxGeometry y="120" width="220" height="80" as="geometry" />
        </mxCell>
        <mxCell id="RneDQQNkBCsze__7GoP--26" value="Tutorial" style="swimlane;childLayout=stackLayout;horizontal=1;startSize=50;horizontalStack=0;rounded=1;fontSize=14;fontStyle=0;strokeWidth=2;resizeParent=0;resizeLast=1;shadow=0;dashed=0;align=center;arcSize=4;whiteSpace=wrap;html=1;" vertex="1" parent="1">
          <mxGeometry x="607" y="30" width="220" height="160" as="geometry" />
        </mxCell>
        <mxCell id="RneDQQNkBCsze__7GoP--27" value="+tutorialID: int (PK)&lt;br&gt;+title: string&lt;br&gt;+filePath: string&lt;div&gt;&lt;span style=&quot;background-color: initial;&quot;&gt;+createdBy: int (FK to User)&lt;/span&gt;&lt;/div&gt;&lt;div&gt;+created_at: timestamp&lt;/div&gt;&lt;div&gt;+updated_at: timestamp&lt;br&gt;&lt;div&gt;&lt;br&gt;&lt;/div&gt;&lt;div&gt;&lt;div&gt;&lt;br&gt;&lt;/div&gt;&lt;/div&gt;&lt;/div&gt;" style="align=left;strokeColor=none;fillColor=none;spacingLeft=4;fontSize=12;verticalAlign=top;resizable=0;rotatable=0;part=1;html=1;" vertex="1" parent="RneDQQNkBCsze__7GoP--26">
          <mxGeometry y="50" width="220" height="70" as="geometry" />
        </mxCell>
        <mxCell id="RneDQQNkBCsze__7GoP--28" value="&lt;div&gt;&lt;div&gt;&lt;br&gt;&lt;/div&gt;&lt;/div&gt;&lt;div&gt;&lt;br&gt;&lt;/div&gt;" style="align=left;strokeColor=none;fillColor=none;spacingLeft=4;fontSize=12;verticalAlign=top;resizable=0;rotatable=0;part=1;html=1;" vertex="1" parent="RneDQQNkBCsze__7GoP--26">
          <mxGeometry y="120" width="220" height="90" as="geometry" />
        </mxCell>
        <mxCell id="RneDQQNkBCsze__7GoP--29" value="&lt;div&gt;&lt;div&gt;&lt;br&gt;&lt;/div&gt;&lt;/div&gt;&lt;div&gt;&lt;br&gt;&lt;/div&gt;" style="align=left;strokeColor=none;fillColor=none;spacingLeft=4;fontSize=12;verticalAlign=top;resizable=0;rotatable=0;part=1;html=1;" vertex="1" parent="RneDQQNkBCsze__7GoP--26">
          <mxGeometry y="210" width="220" height="-50" as="geometry" />
        </mxCell>
        <mxCell id="RneDQQNkBCsze__7GoP--34" value="&lt;div&gt;&lt;div&gt;&lt;br&gt;&lt;/div&gt;&lt;/div&gt;&lt;div&gt;&lt;br&gt;&lt;/div&gt;" style="align=left;strokeColor=none;fillColor=none;spacingLeft=4;fontSize=12;verticalAlign=top;resizable=0;rotatable=0;part=1;html=1;" vertex="1" parent="RneDQQNkBCsze__7GoP--26">
          <mxGeometry y="160" width="220" as="geometry" />
        </mxCell>
        <mxCell id="RneDQQNkBCsze__7GoP--35" value="Message" style="swimlane;childLayout=stackLayout;horizontal=1;startSize=50;horizontalStack=0;rounded=1;fontSize=14;fontStyle=0;strokeWidth=2;resizeParent=0;resizeLast=1;shadow=0;dashed=0;align=center;arcSize=4;whiteSpace=wrap;html=1;" vertex="1" parent="1">
          <mxGeometry x="220" y="-230" width="220" height="160" as="geometry" />
        </mxCell>
        <mxCell id="RneDQQNkBCsze__7GoP--36" value="+messageID: int (PK)&lt;br&gt;+senderID: int(FK to User)&lt;br&gt;+receiverID:int (FK to User)&lt;div&gt;&lt;span style=&quot;background-color: initial;&quot;&gt;+subject: string&lt;/span&gt;&lt;/div&gt;&lt;div&gt;&lt;span style=&quot;background-color: initial;&quot;&gt;+body: string&lt;/span&gt;&lt;/div&gt;&lt;div&gt;+created_at: timestamp&lt;/div&gt;&lt;div&gt;&lt;div&gt;&lt;br&gt;&lt;/div&gt;&lt;div&gt;&lt;div&gt;&lt;br&gt;&lt;/div&gt;&lt;/div&gt;&lt;/div&gt;" style="align=left;strokeColor=none;fillColor=none;spacingLeft=4;fontSize=12;verticalAlign=top;resizable=0;rotatable=0;part=1;html=1;" vertex="1" parent="RneDQQNkBCsze__7GoP--35">
          <mxGeometry y="50" width="220" height="70" as="geometry" />
        </mxCell>
        <mxCell id="RneDQQNkBCsze__7GoP--37" value="&lt;div&gt;&lt;div&gt;&lt;br&gt;&lt;/div&gt;&lt;/div&gt;&lt;div&gt;&lt;br&gt;&lt;/div&gt;" style="align=left;strokeColor=none;fillColor=none;spacingLeft=4;fontSize=12;verticalAlign=top;resizable=0;rotatable=0;part=1;html=1;" vertex="1" parent="RneDQQNkBCsze__7GoP--35">
          <mxGeometry y="120" width="220" height="90" as="geometry" />
        </mxCell>
        <mxCell id="RneDQQNkBCsze__7GoP--38" value="&lt;div&gt;&lt;div&gt;&lt;br&gt;&lt;/div&gt;&lt;/div&gt;&lt;div&gt;&lt;br&gt;&lt;/div&gt;" style="align=left;strokeColor=none;fillColor=none;spacingLeft=4;fontSize=12;verticalAlign=top;resizable=0;rotatable=0;part=1;html=1;" vertex="1" parent="RneDQQNkBCsze__7GoP--35">
          <mxGeometry y="210" width="220" height="-50" as="geometry" />
        </mxCell>
        <mxCell id="RneDQQNkBCsze__7GoP--39" value="Invitation" style="swimlane;childLayout=stackLayout;horizontal=1;startSize=50;horizontalStack=0;rounded=1;fontSize=14;fontStyle=0;strokeWidth=2;resizeParent=0;resizeLast=1;shadow=0;dashed=0;align=center;arcSize=4;whiteSpace=wrap;html=1;" vertex="1" parent="1">
          <mxGeometry x="640" y="-280" width="220" height="210" as="geometry" />
        </mxCell>
        <mxCell id="RneDQQNkBCsze__7GoP--40" value="+invitationID: int (PK)&lt;br&gt;+senderID: int(FK)&lt;br&gt;+receiverID: int (FK)&lt;div&gt;+projectID: int (FK, nullable)&lt;/div&gt;&lt;div&gt;+paperID: int (FK, nullable)&lt;/div&gt;&lt;div&gt;+status: enum(PENDING, ACCEPTED,&lt;/div&gt;&lt;div&gt;REJECTED)&lt;/div&gt;&lt;div&gt;&lt;span style=&quot;background-color: initial;&quot;&gt;+message: string&lt;/span&gt;&lt;/div&gt;&lt;div&gt;+created_at: timestamp&lt;/div&gt;&lt;div&gt;+updated_at: timestamp&lt;br&gt;&lt;div&gt;&lt;br&gt;&lt;/div&gt;&lt;div&gt;&lt;div&gt;&lt;br&gt;&lt;/div&gt;&lt;/div&gt;&lt;/div&gt;" style="align=left;strokeColor=none;fillColor=none;spacingLeft=4;fontSize=12;verticalAlign=top;resizable=0;rotatable=0;part=1;html=1;" vertex="1" parent="RneDQQNkBCsze__7GoP--39">
          <mxGeometry y="50" width="220" height="70" as="geometry" />
        </mxCell>
        <mxCell id="RneDQQNkBCsze__7GoP--41" value="&lt;div&gt;&lt;div&gt;&lt;br&gt;&lt;/div&gt;&lt;/div&gt;" style="align=left;strokeColor=none;fillColor=none;spacingLeft=4;fontSize=12;verticalAlign=top;resizable=0;rotatable=0;part=1;html=1;" vertex="1" parent="RneDQQNkBCsze__7GoP--39">
          <mxGeometry y="120" width="220" height="90" as="geometry" />
        </mxCell>
        <mxCell id="RneDQQNkBCsze__7GoP--64" style="edgeStyle=orthogonalEdgeStyle;rounded=0;orthogonalLoop=1;jettySize=auto;html=1;entryX=1.014;entryY=0.17;entryDx=0;entryDy=0;entryPerimeter=0;endArrow=ERmany;endFill=0;" edge="1" parent="1" source="RneDQQNkBCsze__7GoP--2" target="RneDQQNkBCsze__7GoP--5">
          <mxGeometry relative="1" as="geometry" />
        </mxCell>
        <mxCell id="RneDQQNkBCsze__7GoP--65" value="1" style="text;html=1;align=center;verticalAlign=middle;whiteSpace=wrap;rounded=0;" vertex="1" parent="1">
          <mxGeometry x="280" y="160" width="60" height="30" as="geometry" />
        </mxCell>
        <mxCell id="RneDQQNkBCsze__7GoP--66" value="0..*" style="text;html=1;align=center;verticalAlign=middle;whiteSpace=wrap;rounded=0;" vertex="1" parent="1">
          <mxGeometry x="210" y="10" width="60" height="30" as="geometry" />
        </mxCell>
        <mxCell id="RneDQQNkBCsze__7GoP--67" style="edgeStyle=orthogonalEdgeStyle;rounded=0;orthogonalLoop=1;jettySize=auto;html=1;entryX=1;entryY=0.25;entryDx=0;entryDy=0;endArrow=ERmany;endFill=0;" edge="1" parent="1" source="RneDQQNkBCsze__7GoP--4" target="RneDQQNkBCsze__7GoP--14">
          <mxGeometry relative="1" as="geometry" />
        </mxCell>
        <mxCell id="RneDQQNkBCsze__7GoP--68" value="1" style="text;html=1;align=center;verticalAlign=middle;whiteSpace=wrap;rounded=0;" vertex="1" parent="1">
          <mxGeometry x="290" y="220" width="60" height="30" as="geometry" />
        </mxCell>
        <mxCell id="RneDQQNkBCsze__7GoP--69" value="0..*" style="text;html=1;align=center;verticalAlign=middle;whiteSpace=wrap;rounded=0;" vertex="1" parent="1">
          <mxGeometry x="250" y="285" width="60" height="30" as="geometry" />
        </mxCell>
        <mxCell id="RneDQQNkBCsze__7GoP--70" style="edgeStyle=orthogonalEdgeStyle;rounded=0;orthogonalLoop=1;jettySize=auto;html=1;entryX=0;entryY=0.5;entryDx=0;entryDy=0;endArrow=ERmany;endFill=0;" edge="1" parent="1" source="RneDQQNkBCsze__7GoP--7" target="RneDQQNkBCsze__7GoP--15">
          <mxGeometry relative="1" as="geometry">
            <Array as="points">
              <mxPoint x="20" y="405" />
            </Array>
          </mxGeometry>
        </mxCell>
        <mxCell id="RneDQQNkBCsze__7GoP--71" value="1" style="text;html=1;align=center;verticalAlign=middle;whiteSpace=wrap;rounded=0;" vertex="1" parent="1">
          <mxGeometry x="10" y="230" width="60" height="30" as="geometry" />
        </mxCell>
        <mxCell id="RneDQQNkBCsze__7GoP--72" value="0..*" style="text;html=1;align=center;verticalAlign=middle;whiteSpace=wrap;rounded=0;" vertex="1" parent="1">
          <mxGeometry x="10" y="365" width="60" height="30" as="geometry" />
        </mxCell>
        <mxCell id="RneDQQNkBCsze__7GoP--73" style="edgeStyle=orthogonalEdgeStyle;rounded=0;orthogonalLoop=1;jettySize=auto;html=1;entryX=0.5;entryY=0;entryDx=0;entryDy=0;endArrow=ERoneToMany;endFill=0;" edge="1" parent="1" source="RneDQQNkBCsze__7GoP--4" target="RneDQQNkBCsze__7GoP--11">
          <mxGeometry relative="1" as="geometry" />
        </mxCell>
        <mxCell id="RneDQQNkBCsze__7GoP--75" value="1" style="text;html=1;align=center;verticalAlign=middle;whiteSpace=wrap;rounded=0;" vertex="1" parent="1">
          <mxGeometry x="400" y="280" width="60" height="30" as="geometry" />
        </mxCell>
        <mxCell id="RneDQQNkBCsze__7GoP--76" value="0..*" style="text;html=1;align=center;verticalAlign=middle;whiteSpace=wrap;rounded=0;" vertex="1" parent="1">
          <mxGeometry x="510" y="610" width="60" height="30" as="geometry" />
        </mxCell>
        <mxCell id="RneDQQNkBCsze__7GoP--77" style="edgeStyle=orthogonalEdgeStyle;rounded=0;orthogonalLoop=1;jettySize=auto;html=1;entryX=0;entryY=0.25;entryDx=0;entryDy=0;endArrow=ERmany;endFill=0;" edge="1" parent="1" source="RneDQQNkBCsze__7GoP--3" target="RneDQQNkBCsze__7GoP--18">
          <mxGeometry relative="1" as="geometry">
            <Array as="points">
              <mxPoint x="580" y="230" />
              <mxPoint x="580" y="268" />
            </Array>
          </mxGeometry>
        </mxCell>
        <mxCell id="RneDQQNkBCsze__7GoP--78" value="1" style="text;html=1;align=center;verticalAlign=middle;whiteSpace=wrap;rounded=0;" vertex="1" parent="1">
          <mxGeometry x="480" y="200" width="60" height="30" as="geometry" />
        </mxCell>
        <mxCell id="RneDQQNkBCsze__7GoP--79" value="0..*" style="text;html=1;align=center;verticalAlign=middle;whiteSpace=wrap;rounded=0;" vertex="1" parent="1">
          <mxGeometry x="610" y="240" width="60" height="30" as="geometry" />
        </mxCell>
        <mxCell id="RneDQQNkBCsze__7GoP--80" style="edgeStyle=orthogonalEdgeStyle;rounded=0;orthogonalLoop=1;jettySize=auto;html=1;entryX=0.089;entryY=1.098;entryDx=0;entryDy=0;entryPerimeter=0;endArrow=ERmany;endFill=0;" edge="1" parent="1" source="RneDQQNkBCsze__7GoP--11" target="RneDQQNkBCsze__7GoP--19">
          <mxGeometry relative="1" as="geometry" />
        </mxCell>
        <mxCell id="RneDQQNkBCsze__7GoP--81" value="1" style="text;html=1;align=center;verticalAlign=middle;whiteSpace=wrap;rounded=0;" vertex="1" parent="1">
          <mxGeometry x="610" y="725" width="60" height="30" as="geometry" />
        </mxCell>
        <mxCell id="RneDQQNkBCsze__7GoP--82" value="0..*" style="text;html=1;align=center;verticalAlign=middle;whiteSpace=wrap;rounded=0;" vertex="1" parent="1">
          <mxGeometry x="630" y="350" width="60" height="30" as="geometry" />
        </mxCell>
        <mxCell id="RneDQQNkBCsze__7GoP--83" style="edgeStyle=orthogonalEdgeStyle;rounded=0;orthogonalLoop=1;jettySize=auto;html=1;entryX=0;entryY=0.75;entryDx=0;entryDy=0;endArrow=ERmany;endFill=0;" edge="1" parent="1" source="RneDQQNkBCsze__7GoP--7" target="RneDQQNkBCsze__7GoP--13">
          <mxGeometry relative="1" as="geometry">
            <Array as="points">
              <mxPoint x="-80" y="170" />
              <mxPoint x="-80" y="830" />
            </Array>
          </mxGeometry>
        </mxCell>
        <mxCell id="RneDQQNkBCsze__7GoP--84" value="0..*" style="text;html=1;align=center;verticalAlign=middle;whiteSpace=wrap;rounded=0;" vertex="1" parent="1">
          <mxGeometry x="340" y="790" width="60" height="30" as="geometry" />
        </mxCell>
        <mxCell id="RneDQQNkBCsze__7GoP--85" value="1" style="text;html=1;align=center;verticalAlign=middle;whiteSpace=wrap;rounded=0;" vertex="1" parent="1">
          <mxGeometry x="-70" y="140" width="60" height="30" as="geometry" />
        </mxCell>
        <mxCell id="RneDQQNkBCsze__7GoP--86" style="edgeStyle=orthogonalEdgeStyle;rounded=0;orthogonalLoop=1;jettySize=auto;html=1;entryX=0.658;entryY=1.074;entryDx=0;entryDy=0;entryPerimeter=0;endArrow=ERmany;endFill=0;" edge="1" parent="1" source="RneDQQNkBCsze__7GoP--5" target="RneDQQNkBCsze__7GoP--10">
          <mxGeometry relative="1" as="geometry" />
        </mxCell>
        <mxCell id="RneDQQNkBCsze__7GoP--87" value="0..*" style="text;html=1;align=center;verticalAlign=middle;whiteSpace=wrap;rounded=0;" vertex="1" parent="1">
          <mxGeometry x="-70" y="-90" width="60" height="30" as="geometry" />
        </mxCell>
        <mxCell id="RneDQQNkBCsze__7GoP--88" value="1" style="text;html=1;align=center;verticalAlign=middle;whiteSpace=wrap;rounded=0;" vertex="1" parent="1">
          <mxGeometry x="70" y="-30" width="60" height="30" as="geometry" />
        </mxCell>
        <mxCell id="RneDQQNkBCsze__7GoP--91" value="0..*" style="text;html=1;align=center;verticalAlign=middle;whiteSpace=wrap;rounded=0;" vertex="1" parent="1">
          <mxGeometry x="550" y="80" width="60" height="30" as="geometry" />
        </mxCell>
        <mxCell id="RneDQQNkBCsze__7GoP--97" style="edgeStyle=orthogonalEdgeStyle;rounded=0;orthogonalLoop=1;jettySize=auto;html=1;entryX=1;entryY=0.5;entryDx=0;entryDy=0;endArrow=ERmany;endFill=0;" edge="1" parent="1" source="RneDQQNkBCsze__7GoP--4" target="RneDQQNkBCsze__7GoP--21">
          <mxGeometry relative="1" as="geometry">
            <Array as="points">
              <mxPoint x="380" y="320" />
              <mxPoint x="340" y="320" />
              <mxPoint x="340" y="625" />
            </Array>
          </mxGeometry>
        </mxCell>
        <mxCell id="RneDQQNkBCsze__7GoP--98" value="1" style="text;html=1;align=center;verticalAlign=middle;whiteSpace=wrap;rounded=0;" vertex="1" parent="1">
          <mxGeometry x="320" y="290" width="60" height="30" as="geometry" />
        </mxCell>
        <mxCell id="RneDQQNkBCsze__7GoP--99" value="0..*" style="text;html=1;align=center;verticalAlign=middle;whiteSpace=wrap;rounded=0;" vertex="1" parent="1">
          <mxGeometry x="270" y="590" width="60" height="30" as="geometry" />
        </mxCell>
        <mxCell id="RneDQQNkBCsze__7GoP--100" style="edgeStyle=orthogonalEdgeStyle;rounded=0;orthogonalLoop=1;jettySize=auto;html=1;entryX=0;entryY=0.5;entryDx=0;entryDy=0;endArrow=ERoneToMany;endFill=0;" edge="1" parent="1" source="RneDQQNkBCsze__7GoP--6" target="RneDQQNkBCsze__7GoP--21">
          <mxGeometry relative="1" as="geometry">
            <Array as="points">
              <mxPoint x="-140" y="95" />
              <mxPoint x="-140" y="625" />
            </Array>
          </mxGeometry>
        </mxCell>
        <mxCell id="RneDQQNkBCsze__7GoP--101" value="1" style="text;html=1;align=center;verticalAlign=middle;whiteSpace=wrap;rounded=0;" vertex="1" parent="1">
          <mxGeometry x="-70" y="60" width="60" height="30" as="geometry" />
        </mxCell>
        <mxCell id="RneDQQNkBCsze__7GoP--102" value="0..*" style="text;html=1;align=center;verticalAlign=middle;whiteSpace=wrap;rounded=0;" vertex="1" parent="1">
          <mxGeometry x="10" y="590" width="60" height="30" as="geometry" />
        </mxCell>
        <mxCell id="RneDQQNkBCsze__7GoP--103" style="edgeStyle=orthogonalEdgeStyle;rounded=0;orthogonalLoop=1;jettySize=auto;html=1;entryX=1;entryY=0.5;entryDx=0;entryDy=0;endArrow=ERmany;endFill=0;" edge="1" parent="1" source="RneDQQNkBCsze__7GoP--12" target="RneDQQNkBCsze__7GoP--22">
          <mxGeometry relative="1" as="geometry" />
        </mxCell>
        <mxCell id="RneDQQNkBCsze__7GoP--104" value="0..*" style="text;html=1;align=center;verticalAlign=middle;whiteSpace=wrap;rounded=0;" vertex="1" parent="1">
          <mxGeometry x="270" y="695" width="60" height="30" as="geometry" />
        </mxCell>
        <mxCell id="RneDQQNkBCsze__7GoP--105" value="1" style="text;html=1;align=center;verticalAlign=middle;whiteSpace=wrap;rounded=0;" vertex="1" parent="1">
          <mxGeometry x="350" y="710" width="60" height="30" as="geometry" />
        </mxCell>
        <mxCell id="RneDQQNkBCsze__7GoP--107" value="1" style="text;html=1;align=center;verticalAlign=middle;whiteSpace=wrap;rounded=0;" vertex="1" parent="1">
          <mxGeometry x="480" y="130" width="60" height="30" as="geometry" />
        </mxCell>
        <mxCell id="RneDQQNkBCsze__7GoP--109" value="1" style="text;html=1;align=center;verticalAlign=middle;whiteSpace=wrap;rounded=0;" vertex="1" parent="1">
          <mxGeometry x="430" y="70" width="60" height="30" as="geometry" />
        </mxCell>
        <mxCell id="RneDQQNkBCsze__7GoP--110" value="0..*" style="text;html=1;align=center;verticalAlign=middle;whiteSpace=wrap;rounded=0;" vertex="1" parent="1">
          <mxGeometry x="590" y="-220" width="60" height="30" as="geometry" />
        </mxCell>
        <mxCell id="RneDQQNkBCsze__7GoP--111" style="edgeStyle=orthogonalEdgeStyle;rounded=0;orthogonalLoop=1;jettySize=auto;html=1;entryX=1;entryY=0.5;entryDx=0;entryDy=0;endArrow=ERmany;endFill=0;" edge="1" parent="1" source="RneDQQNkBCsze__7GoP--13" target="RneDQQNkBCsze__7GoP--41">
          <mxGeometry relative="1" as="geometry">
            <Array as="points">
              <mxPoint x="930" y="810" />
              <mxPoint x="930" y="-115" />
            </Array>
          </mxGeometry>
        </mxCell>
        <mxCell id="RneDQQNkBCsze__7GoP--112" value="0..*" style="text;html=1;align=center;verticalAlign=middle;whiteSpace=wrap;rounded=0;" vertex="1" parent="1">
          <mxGeometry x="860" y="-150" width="60" height="30" as="geometry" />
        </mxCell>
        <mxCell id="RneDQQNkBCsze__7GoP--115" value="1" style="text;html=1;align=center;verticalAlign=middle;whiteSpace=wrap;rounded=0;" vertex="1" parent="1">
          <mxGeometry x="620" y="820" width="60" height="30" as="geometry" />
        </mxCell>
        <mxCell id="RneDQQNkBCsze__7GoP--117" value="0..*" style="text;html=1;align=center;verticalAlign=middle;whiteSpace=wrap;rounded=0;" vertex="1" parent="1">
          <mxGeometry x="687" y="-320" width="60" height="30" as="geometry" />
        </mxCell>
        <mxCell id="RneDQQNkBCsze__7GoP--118" value="1" style="text;html=1;align=center;verticalAlign=middle;whiteSpace=wrap;rounded=0;" vertex="1" parent="1">
          <mxGeometry x="120" y="-40" width="60" height="30" as="geometry" />
        </mxCell>
        <mxCell id="RneDQQNkBCsze__7GoP--120" value="1" style="text;html=1;align=center;verticalAlign=middle;whiteSpace=wrap;rounded=0;" vertex="1" parent="1">
          <mxGeometry x="370" y="70" width="60" height="30" as="geometry" />
        </mxCell>
        <mxCell id="RneDQQNkBCsze__7GoP--121" value="0..*" style="text;html=1;align=center;verticalAlign=middle;whiteSpace=wrap;rounded=0;" vertex="1" parent="1">
          <mxGeometry x="450" y="-140" width="60" height="30" as="geometry" />
        </mxCell>
      </root>
    </mxGraphModel>
  </diagram>
</mxfile>
